<?xml version="1.0" encoding="UTF-8" standalone="no"?>
<!DOCTYPE svg PUBLIC "-//W3C//DTD SVG 1.1//EN"
 "http://www.w3.org/Graphics/SVG/1.1/DTD/svg11.dtd">
<!-- Generated by graphviz version 2.42.3 ()
 -->
<!-- Title: %3 Pages: 1 -->
<svg width="719pt" height="404pt"
 viewBox="0.00 0.00 718.85 404.00" xmlns="http://www.w3.org/2000/svg" xmlns:xlink="http://www.w3.org/1999/xlink">
<g id="graph0" class="graph" transform="scale(1 1) rotate(0) translate(4 400)">
<title>%3</title>
<polygon fill="white" stroke="transparent" points="-4,4 -4,-400 714.85,-400 714.85,4 -4,4"/>
<!-- [root] aws_instance.web -->
<g id="node1" class="node">
<title>[root] aws_instance.web</title>
<polygon fill="none" stroke="black" points="515.85,-180 378.85,-180 378.85,-144 515.85,-144 515.85,-180"/>
<text text-anchor="middle" x="447.35" y="-158.3" font-family="Times,serif" font-size="14.00">aws_instance.web</text>
</g>
<!-- [root] aws_security_group.enable&#45;ssh&#45;access -->
<g id="node2" class="node">
<title>[root] aws_security_group.enable&#45;ssh&#45;access</title>
<polygon fill="none" stroke="black" points="335.85,-108 48.85,-108 48.85,-72 335.85,-72 335.85,-108"/>
<text text-anchor="middle" x="192.35" y="-86.3" font-family="Times,serif" font-size="14.00">aws_security_group.enable&#45;ssh&#45;access</text>
</g>
<!-- [root] aws_instance.web&#45;&gt;[root] aws_security_group.enable&#45;ssh&#45;access -->
<g id="edge1" class="edge">
<title>[root] aws_instance.web&#45;&gt;[root] aws_security_group.enable&#45;ssh&#45;access</title>
<path fill="none" stroke="black" d="M385.3,-143.97C348.89,-133.97 302.72,-121.3 264.67,-110.85"/>
<polygon fill="black" stroke="black" points="265.25,-107.38 254.68,-108.11 263.4,-114.13 265.25,-107.38"/>
</g>
<!-- [root] var.amis -->
<g id="node5" class="node">
<title>[root] var.amis</title>
<polygon fill="none" stroke="black" points="424.85,-108 353.85,-108 353.85,-72 430.85,-72 430.85,-102 424.85,-108"/>
<polyline fill="none" stroke="black" points="424.85,-108 424.85,-102 "/>
<polyline fill="none" stroke="black" points="430.85,-102 424.85,-102 "/>
<text text-anchor="middle" x="392.35" y="-86.3" font-family="Times,serif" font-size="14.00">var.amis</text>
</g>
<!-- [root] aws_instance.web&#45;&gt;[root] var.amis -->
<g id="edge2" class="edge">
<title>[root] aws_instance.web&#45;&gt;[root] var.amis</title>
<path fill="none" stroke="black" d="M433.75,-143.7C427.23,-135.39 419.28,-125.28 412.1,-116.14"/>
<polygon fill="black" stroke="black" points="414.72,-113.81 405.79,-108.1 409.22,-118.13 414.72,-113.81"/>
</g>
<!-- [root] var.key&#45;name -->
<g id="node7" class="node">
<title>[root] var.key&#45;name</title>
<polygon fill="none" stroke="black" points="549.85,-108 448.85,-108 448.85,-72 555.85,-72 555.85,-102 549.85,-108"/>
<polyline fill="none" stroke="black" points="549.85,-108 549.85,-102 "/>
<polyline fill="none" stroke="black" points="555.85,-102 549.85,-102 "/>
<text text-anchor="middle" x="502.35" y="-86.3" font-family="Times,serif" font-size="14.00">var.key&#45;name</text>
</g>
<!-- [root] aws_instance.web&#45;&gt;[root] var.key&#45;name -->
<g id="edge3" class="edge">
<title>[root] aws_instance.web&#45;&gt;[root] var.key&#45;name</title>
<path fill="none" stroke="black" d="M460.95,-143.7C467.47,-135.39 475.42,-125.28 482.6,-116.14"/>
<polygon fill="black" stroke="black" points="485.48,-118.13 488.91,-108.1 479.98,-113.81 485.48,-118.13"/>
</g>
<!-- [root] var.machine&#45;size -->
<g id="node8" class="node">
<title>[root] var.machine&#45;size</title>
<polygon fill="none" stroke="black" points="704.85,-108 573.85,-108 573.85,-72 710.85,-72 710.85,-102 704.85,-108"/>
<polyline fill="none" stroke="black" points="704.85,-108 704.85,-102 "/>
<polyline fill="none" stroke="black" points="710.85,-102 704.85,-102 "/>
<text text-anchor="middle" x="642.35" y="-86.3" font-family="Times,serif" font-size="14.00">var.machine&#45;size</text>
</g>
<!-- [root] aws_instance.web&#45;&gt;[root] var.machine&#45;size -->
<g id="edge4" class="edge">
<title>[root] aws_instance.web&#45;&gt;[root] var.machine&#45;size</title>
<path fill="none" stroke="black" d="M495.05,-143.88C522.3,-134.09 556.65,-121.77 585.32,-111.47"/>
<polygon fill="black" stroke="black" points="586.57,-114.74 594.8,-108.07 584.21,-108.15 586.57,-114.74"/>
</g>
<!-- [root] provider.aws -->
<g id="node4" class="node">
<title>[root] provider.aws</title>
<polygon fill="none" stroke="black" points="98.35,-36 0.15,-18 98.35,0 196.55,-18 98.35,-36"/>
<text text-anchor="middle" x="98.35" y="-14.3" font-family="Times,serif" font-size="14.00">provider.aws</text>
</g>
<!-- [root] aws_security_group.enable&#45;ssh&#45;access&#45;&gt;[root] provider.aws -->
<g id="edge5" class="edge">
<title>[root] aws_security_group.enable&#45;ssh&#45;access&#45;&gt;[root] provider.aws</title>
<path fill="none" stroke="black" d="M169.11,-71.7C155.79,-61.77 139,-49.27 125.12,-38.94"/>
<polygon fill="black" stroke="black" points="127.03,-35.99 116.91,-32.82 122.84,-41.6 127.03,-35.99"/>
</g>
<!-- [root] var.ingress&#45;ports -->
<g id="node6" class="node">
<title>[root] var.ingress&#45;ports</title>
<polygon fill="none" stroke="black" points="352.35,-36 214.35,-36 214.35,0 358.35,0 358.35,-30 352.35,-36"/>
<polyline fill="none" stroke="black" points="352.35,-36 352.35,-30 "/>
<polyline fill="none" stroke="black" points="358.35,-30 352.35,-30 "/>
<text text-anchor="middle" x="286.35" y="-14.3" font-family="Times,serif" font-size="14.00">var.ingress&#45;ports</text>
</g>
<!-- [root] aws_security_group.enable&#45;ssh&#45;access&#45;&gt;[root] var.ingress&#45;ports -->
<g id="edge6" class="edge">
<title>[root] aws_security_group.enable&#45;ssh&#45;access&#45;&gt;[root] var.ingress&#45;ports</title>
<path fill="none" stroke="black" d="M215.59,-71.7C227.54,-62.8 242.27,-51.82 255.2,-42.2"/>
<polygon fill="black" stroke="black" points="257.45,-44.88 263.38,-36.1 253.27,-39.27 257.45,-44.88"/>
</g>
<!-- [root] output.ip_address -->
<g id="node3" class="node">
<title>[root] output.ip_address</title>
<polygon fill="none" stroke="black" points="397.35,-252 259.35,-252 259.35,-216 403.35,-216 403.35,-246 397.35,-252"/>
<polyline fill="none" stroke="black" points="397.35,-252 397.35,-246 "/>
<polyline fill="none" stroke="black" points="403.35,-246 397.35,-246 "/>
<text text-anchor="middle" x="331.35" y="-230.3" font-family="Times,serif" font-size="14.00">output.ip_address</text>
</g>
<!-- [root] output.ip_address&#45;&gt;[root] aws_instance.web -->
<g id="edge8" class="edge">
<title>[root] output.ip_address&#45;&gt;[root] aws_instance.web</title>
<path fill="none" stroke="black" d="M359.73,-215.88C374.89,-206.72 393.75,-195.34 410.09,-185.48"/>
<polygon fill="black" stroke="black" points="412.11,-188.35 418.86,-180.19 408.49,-182.36 412.11,-188.35"/>
</g>
<!-- [root] meta.count&#45;boundary (EachMode fixup) -->
<g id="node9" class="node">
<title>[root] meta.count&#45;boundary (EachMode fixup)</title>
<ellipse fill="none" stroke="black" cx="323.35" cy="-306" rx="220.16" ry="18"/>
<text text-anchor="middle" x="323.35" y="-302.3" font-family="Times,serif" font-size="14.00">[root] meta.count&#45;boundary (EachMode fixup)</text>
</g>
<!-- [root] meta.count&#45;boundary (EachMode fixup)&#45;&gt;[root] output.ip_address -->
<g id="edge7" class="edge">
<title>[root] meta.count&#45;boundary (EachMode fixup)&#45;&gt;[root] output.ip_address</title>
<path fill="none" stroke="black" d="M325.33,-287.7C326.21,-279.98 327.27,-270.71 328.25,-262.11"/>
<polygon fill="black" stroke="black" points="331.74,-262.44 329.4,-252.1 324.78,-261.64 331.74,-262.44"/>
</g>
<!-- [root] provider.aws (close) -->
<g id="node10" class="node">
<title>[root] provider.aws (close)</title>
<ellipse fill="none" stroke="black" cx="567.35" cy="-234" rx="142.17" ry="18"/>
<text text-anchor="middle" x="567.35" y="-230.3" font-family="Times,serif" font-size="14.00">[root] provider.aws (close)</text>
</g>
<!-- [root] provider.aws (close)&#45;&gt;[root] aws_instance.web -->
<g id="edge9" class="edge">
<title>[root] provider.aws (close)&#45;&gt;[root] aws_instance.web</title>
<path fill="none" stroke="black" d="M538.61,-216.23C522.66,-206.93 502.64,-195.25 485.41,-185.2"/>
<polygon fill="black" stroke="black" points="487.09,-182.13 476.69,-180.12 483.57,-188.18 487.09,-182.13"/>
</g>
<!-- [root] root -->
<g id="node11" class="node">
<title>[root] root</title>
<ellipse fill="none" stroke="black" cx="447.35" cy="-378" rx="64.19" ry="18"/>
<text text-anchor="middle" x="447.35" y="-374.3" font-family="Times,serif" font-size="14.00">[root] root</text>
</g>
<!-- [root] root&#45;&gt;[root] meta.count&#45;boundary (EachMode fixup) -->
<g id="edge10" class="edge">
<title>[root] root&#45;&gt;[root] meta.count&#45;boundary (EachMode fixup)</title>
<path fill="none" stroke="black" d="M420.14,-361.64C403.23,-352.09 381.21,-339.67 362.45,-329.07"/>
<polygon fill="black" stroke="black" points="363.97,-325.91 353.54,-324.04 360.53,-332.01 363.97,-325.91"/>
</g>
<!-- [root] root&#45;&gt;[root] provider.aws (close) -->
<g id="edge11" class="edge">
<title>[root] root&#45;&gt;[root] provider.aws (close)</title>
<path fill="none" stroke="black" d="M491.92,-364.92C513.43,-356.82 537.69,-343.89 552.35,-324 565.39,-306.31 568.64,-281.29 568.92,-262.28"/>
<polygon fill="black" stroke="black" points="572.42,-262.11 568.8,-252.15 565.42,-262.19 572.42,-262.11"/>
</g>
</g>
</svg>
